<svg width="522" height="205" viewBox="0 0 522 205" fill="none" xmlns="http://www.w3.org/2000/svg">
<path fill-rule="evenodd" clip-rule="evenodd" d="M135.371 42C136.373 42 137.28 42.3941 137.937 43.0314C138.594 43.6687 139 44.549 139 45.5212C139 46.4935 138.594 47.3738 137.937 48.0111C137.28 48.6484 136.373 49.0425 135.371 49.0425C134.369 49.0425 133.462 48.6484 132.805 48.0111C132.713 47.9217 132.626 47.8271 132.544 47.7283L118.183 54.2904C118.232 54.5196 118.257 54.757 118.257 55C118.257 55.243 118.232 55.4804 118.183 55.7096L132.544 62.2717C132.626 62.1729 132.713 62.0787 132.805 61.9889C133.462 61.3516 134.369 60.9575 135.371 60.9575C136.373 60.9575 137.28 61.3516 137.937 61.9889C138.594 62.6262 139 63.5065 139 64.4788C139 65.451 138.594 66.3313 137.937 66.9686C137.28 67.6059 136.373 68 135.371 68C134.369 68 133.462 67.6059 132.805 66.9686C132.149 66.3313 131.743 65.4514 131.743 64.479C131.743 64.236 131.768 63.9986 131.816 63.7694L117.456 57.2072C117.374 57.306 117.287 57.4002 117.194 57.49C116.538 58.1273 115.631 58.5214 114.629 58.5214C113.627 58.5214 112.719 58.1273 112.063 57.49C111.406 56.8528 111 55.9725 111 55.0002C111 54.0279 111.406 53.1477 112.063 52.5104C112.72 51.8731 113.627 51.479 114.629 51.479C115.631 51.479 116.538 51.8731 117.195 52.5104C117.287 52.5998 117.374 52.6944 117.456 52.7932L131.817 46.231C131.768 46.0016 131.742 45.7644 131.742 45.5212C131.742 44.549 132.149 43.6687 132.805 43.0314C133.462 42.3941 134.369 42 135.371 42H135.371Z" fill="black"/>
<circle cx="53" cy="101" r="14" fill="#1877F2"/>
<path d="M59.6984 102.15L60.2453 98.5563H56.7687V96.2125C56.7687 95.1969 57.2375 94.2594 58.8 94.2594H60.4016V91.1734C60.4016 91.1734 58.9562 90.9 57.5891 90.9C54.7375 90.9 52.8625 92.6578 52.8625 95.7828V98.5563H49.6594V102.15H52.8625V110.9H56.7687V102.15H59.6984Z" fill="white"/>
<circle cx="89" cy="101" r="14" fill="#07B53B"/>
<path d="M95.6574 104.373C96.8992 103.028 97.4684 101.682 97.4684 100.182C97.4684 96.4046 93.6911 93.3 89.0342 93.3C84.3773 93.3 80.6 96.4046 80.6 100.182C80.6 103.545 83.6011 106.391 87.6371 106.909C88.6203 107.116 88.5168 107.478 88.3098 108.823C88.258 109.03 88.1028 109.651 89.0342 109.289C89.9138 108.927 93.8981 106.443 95.6574 104.373Z" fill="white"/>
<path d="M91.3627 98.3709C91.4662 98.3191 91.5697 98.4226 91.5697 98.5261V102.2C91.5697 102.303 91.4662 102.355 91.3627 102.355H90.7936C90.7418 102.355 90.6901 102.303 90.6383 102.303L88.9825 100.027V102.2C88.9825 102.303 88.879 102.355 88.8273 102.355H88.2064C88.1029 102.355 88.0511 102.303 88.0511 102.2V98.5261C88.0511 98.4226 88.1029 98.3709 88.2064 98.3709H88.8273C88.879 98.3709 88.9308 98.3709 88.9308 98.4226L90.6383 100.699V98.5261C90.6383 98.4226 90.6901 98.3709 90.7936 98.3709H91.3627Z" fill="#07B53B"/>
<path d="M86.7058 98.3191H87.3267C87.3785 98.3191 87.482 98.4226 87.482 98.5261V102.2C87.482 102.303 87.3785 102.355 87.3267 102.355H86.7058C86.6023 102.355 86.5506 102.303 86.5506 102.2V98.5261C86.5506 98.4226 86.6023 98.3191 86.7058 98.3191Z" fill="#07B53B"/>
<path d="M84.2739 101.424H85.8779C85.9814 101.424 86.0331 101.527 86.0331 101.579V102.2C86.0331 102.252 85.9814 102.355 85.8779 102.355H83.4977C83.446 102.355 83.446 102.303 83.3942 102.303C83.3942 102.252 83.3425 102.252 83.3425 102.2V98.5261C83.3425 98.4226 83.446 98.3191 83.4977 98.3191H84.1186C84.2221 98.3191 84.2739 98.4226 84.2739 98.5261V101.424Z" fill="#07B53B"/>
<path d="M92.2941 98.3191H94.6743C94.7261 98.3191 94.8296 98.4226 94.8296 98.5261V99.0953C94.8296 99.1988 94.7261 99.2505 94.6743 99.2505H93.0703V99.8714H94.6743C94.7261 99.8714 94.8296 99.9749 94.8296 100.027V100.648C94.8296 100.751 94.7261 100.803 94.6743 100.803H93.0703V101.424H94.6743C94.7261 101.424 94.8296 101.527 94.8296 101.579V102.2C94.8296 102.303 94.7261 102.355 94.6743 102.355H92.2941C92.1906 102.355 92.1389 102.252 92.1389 102.2V98.5261C92.1389 98.4226 92.1906 98.3191 92.2941 98.3191Z" fill="#07B53B"/>
<circle cx="125" cy="102" r="13.75" fill="white" stroke="black" stroke-width="0.5"/>
<path d="M126.199 104.397L126.199 104.397C125.55 104.398 124.918 104.187 124.399 103.795L124.398 103.794C124.367 103.772 124.347 103.738 124.341 103.699C124.336 103.665 124.343 103.63 124.361 103.601L124.368 103.594L124.42 103.54C124.463 103.497 124.519 103.439 124.575 103.382L124.73 103.226L124.78 103.174L124.794 103.16L124.798 103.156L124.799 103.155L124.799 103.155L124.799 103.155L124.799 103.155L124.799 103.155L124.805 103.15C124.826 103.126 124.855 103.112 124.886 103.108C124.916 103.104 124.947 103.111 124.972 103.127C125.381 103.418 125.878 103.555 126.377 103.514C126.879 103.473 127.349 103.255 127.705 102.899L127.706 102.898L129.818 100.777C130.53 100.061 130.719 98.9084 130.14 98.0453C129.488 97.0612 128.059 96.6948 126.941 97.6811L126.941 97.6814C126.881 97.734 126.561 98.045 126.266 98.3332C126.116 98.4794 125.97 98.6227 125.86 98.7293L125.729 98.8577L125.693 98.8935L125.683 98.9029L125.681 98.9053L125.68 98.9059L125.68 98.9061L125.68 98.9061L125.855 99.0847L125.68 98.9061L125.678 98.9084C125.665 98.9206 125.651 98.9302 125.635 98.9368C125.62 98.9433 125.603 98.9467 125.586 98.9467C125.569 98.9467 125.552 98.9433 125.536 98.9368C125.521 98.9302 125.506 98.9206 125.494 98.9084L125.494 98.9083L125.072 98.4844C125.072 98.4844 125.072 98.4843 125.072 98.4843C125.047 98.4592 125.033 98.4249 125.033 98.389C125.033 98.3531 125.047 98.3188 125.072 98.2937C125.072 98.2936 125.072 98.2936 125.072 98.2935L126.161 97.2008L126.162 97.2004C127.271 96.0825 129.071 95.9114 130.259 96.8985L130.26 96.8989C130.872 97.4042 131.259 98.1332 131.336 98.9257C131.414 99.7179 131.175 100.508 130.672 101.123C130.672 101.123 130.672 101.124 130.671 101.124C130.665 101.131 130.632 101.166 130.564 101.235C130.495 101.306 130.4 101.404 130.286 101.519C130.06 101.749 129.765 102.048 129.471 102.344C129.178 102.641 128.886 102.935 128.668 103.155L128.405 103.42L128.332 103.494L128.312 103.513L128.307 103.518L128.306 103.52L128.306 103.52L128.306 103.52C127.747 104.081 126.989 104.396 126.199 104.397ZM124.351 103.612C124.351 103.612 124.352 103.611 124.354 103.609C124.352 103.611 124.351 103.612 124.351 103.612Z" fill="black" stroke="black" stroke-width="0.5"/>
<path d="M124.404 100.2L124.406 100.2C125.056 100.198 125.69 100.41 126.209 100.804L126.209 100.804L126.211 100.806C126.241 100.828 126.262 100.862 126.267 100.9C126.273 100.934 126.265 100.969 126.247 100.999L126.24 101.006C126.228 101.019 126.21 101.037 126.189 101.059C126.146 101.103 126.09 101.16 126.033 101.218L125.879 101.374L125.829 101.425L125.814 101.439L125.811 101.443L125.81 101.444L125.81 101.444L125.809 101.445L125.809 101.445L125.809 101.444L125.805 101.449C125.783 101.472 125.754 101.487 125.723 101.49C125.694 101.494 125.664 101.488 125.638 101.472C125.23 101.181 124.733 101.044 124.234 101.085C123.733 101.126 123.262 101.345 122.906 101.701L122.906 101.701L120.794 103.822C120.074 104.536 119.884 105.69 120.465 106.554C121.115 107.537 122.546 107.905 123.664 106.919L123.664 106.918C123.723 106.866 124.043 106.554 124.339 106.266C124.489 106.119 124.635 105.976 124.744 105.869L124.875 105.74L124.912 105.705L124.921 105.695L124.924 105.693L124.925 105.692L124.925 105.692L124.925 105.692L124.75 105.513L124.925 105.692L124.927 105.69C124.939 105.678 124.953 105.668 124.969 105.661L124.873 105.431L124.969 105.661C124.985 105.655 125.002 105.652 125.019 105.652C125.036 105.652 125.052 105.655 125.068 105.661L125.164 105.431L125.068 105.661C125.084 105.668 125.098 105.678 125.11 105.69L125.11 105.69L125.532 106.113C125.556 106.139 125.57 106.174 125.57 106.21C125.57 106.246 125.556 106.281 125.532 106.307L124.443 107.399L124.443 107.399C123.332 108.517 121.532 108.688 120.344 107.701L120.343 107.701C119.731 107.196 119.343 106.467 119.265 105.675C119.187 104.882 119.425 104.091 119.927 103.475L119.928 103.475C119.928 103.475 119.929 103.473 119.933 103.469C119.944 103.457 119.976 103.424 120.035 103.364C120.104 103.293 120.199 103.195 120.313 103.08C120.539 102.85 120.834 102.551 121.128 102.255C121.421 101.959 121.712 101.665 121.93 101.445L122.194 101.18L122.267 101.106L122.286 101.086L122.291 101.081L122.293 101.08L122.293 101.08L122.293 101.08L122.116 100.903L122.293 101.08L122.293 101.079C122.57 100.8 122.899 100.579 123.262 100.428C123.624 100.277 124.012 100.2 124.404 100.2Z" fill="black" stroke="black" stroke-width="0.5"/>
<path fill-rule="evenodd" clip-rule="evenodd" d="M221.371 42C222.373 42 223.28 42.3941 223.937 43.0314C224.594 43.6687 225 44.549 225 45.5212C225 46.4935 224.594 47.3738 223.937 48.0111C223.28 48.6484 222.373 49.0425 221.371 49.0425C220.369 49.0425 219.462 48.6484 218.805 48.0111C218.713 47.9217 218.626 47.8271 218.544 47.7283L204.183 54.2904C204.232 54.5196 204.257 54.757 204.257 55C204.257 55.243 204.232 55.4804 204.183 55.7096L218.544 62.2717C218.626 62.1729 218.713 62.0787 218.805 61.9889C219.462 61.3516 220.369 60.9575 221.371 60.9575C222.373 60.9575 223.28 61.3516 223.937 61.9889C224.594 62.6262 225 63.5065 225 64.4788C225 65.451 224.594 66.3313 223.937 66.9686C223.28 67.6059 222.373 68 221.371 68C220.369 68 219.462 67.6059 218.805 66.9686C218.149 66.3313 217.743 65.4514 217.743 64.479C217.743 64.236 217.768 63.9986 217.816 63.7694L203.456 57.2072C203.374 57.306 203.287 57.4002 203.194 57.49C202.538 58.1273 201.631 58.5214 200.629 58.5214C199.627 58.5214 198.719 58.1273 198.063 57.49C197.406 56.8528 197 55.9725 197 55.0002C197 54.0279 197.406 53.1477 198.063 52.5104C198.72 51.8731 199.627 51.479 200.629 51.479C201.631 51.479 202.538 51.8731 203.195 52.5104C203.287 52.5998 203.374 52.6944 203.456 52.7932L217.817 46.231C217.768 46.0016 217.742 45.7644 217.742 45.5212C217.742 44.549 218.149 43.6687 218.805 43.0314C219.462 42.3941 220.369 42 221.371 42H221.371Z" fill="black"/>
<circle cx="211" cy="101" r="14" fill="#1877F2"/>
<path d="M217.698 102.15L218.245 98.5563H214.769V96.2125C214.769 95.1969 215.237 94.2594 216.8 94.2594H218.402V91.1734C218.402 91.1734 216.956 90.9 215.589 90.9C212.737 90.9 210.862 92.6578 210.862 95.7828V98.5563H207.659V102.15H210.862V110.9H214.769V102.15H217.698Z" fill="white"/>
<circle cx="211" cy="133" r="14" fill="#07B53B"/>
<path d="M217.657 136.373C218.899 135.028 219.468 133.682 219.468 132.182C219.468 128.405 215.691 125.3 211.034 125.3C206.377 125.3 202.6 128.405 202.6 132.182C202.6 135.545 205.601 138.391 209.637 138.909C210.62 139.116 210.517 139.478 210.31 140.823C210.258 141.03 210.103 141.651 211.034 141.289C211.914 140.927 215.898 138.443 217.657 136.373Z" fill="white"/>
<path d="M213.363 130.371C213.466 130.319 213.57 130.423 213.57 130.526V134.2C213.57 134.303 213.466 134.355 213.363 134.355H212.794C212.742 134.355 212.69 134.303 212.638 134.303L210.983 132.027V134.2C210.983 134.303 210.879 134.355 210.827 134.355H210.206C210.103 134.355 210.051 134.303 210.051 134.2V130.526C210.051 130.423 210.103 130.371 210.206 130.371H210.827C210.879 130.371 210.931 130.371 210.931 130.423L212.638 132.699V130.526C212.638 130.423 212.69 130.371 212.794 130.371H213.363Z" fill="#07B53B"/>
<path d="M208.706 130.319H209.327C209.379 130.319 209.482 130.423 209.482 130.526V134.2C209.482 134.303 209.379 134.355 209.327 134.355H208.706C208.602 134.355 208.551 134.303 208.551 134.2V130.526C208.551 130.423 208.602 130.319 208.706 130.319Z" fill="#07B53B"/>
<path d="M206.274 133.424H207.878C207.981 133.424 208.033 133.527 208.033 133.579V134.2C208.033 134.252 207.981 134.355 207.878 134.355H205.498C205.446 134.355 205.446 134.303 205.394 134.303C205.394 134.252 205.342 134.252 205.342 134.2V130.526C205.342 130.423 205.446 130.319 205.498 130.319H206.119C206.222 130.319 206.274 130.423 206.274 130.526V133.424Z" fill="#07B53B"/>
<path d="M214.294 130.319H216.674C216.726 130.319 216.83 130.423 216.83 130.526V131.095C216.83 131.199 216.726 131.25 216.674 131.25H215.07V131.871H216.674C216.726 131.871 216.83 131.975 216.83 132.027V132.648C216.83 132.751 216.726 132.803 216.674 132.803H215.07V133.424H216.674C216.726 133.424 216.83 133.527 216.83 133.579V134.2C216.83 134.303 216.726 134.355 216.674 134.355H214.294C214.191 134.355 214.139 134.252 214.139 134.2V130.526C214.139 130.423 214.191 130.319 214.294 130.319Z" fill="#07B53B"/>
<circle cx="211" cy="165" r="13.75" fill="white" stroke="black" stroke-width="0.5"/>
<path d="M212.199 167.397L212.199 167.397C211.55 167.398 210.918 167.187 210.399 166.795L210.398 166.794C210.367 166.772 210.347 166.738 210.341 166.699C210.336 166.665 210.343 166.63 210.361 166.601L210.368 166.594L210.42 166.54C210.463 166.497 210.519 166.439 210.575 166.382L210.73 166.226L210.78 166.174L210.794 166.16L210.798 166.156L210.799 166.155L210.799 166.155L210.799 166.155L210.799 166.155L210.799 166.155L210.805 166.15C210.826 166.126 210.855 166.112 210.886 166.108C210.916 166.104 210.947 166.111 210.972 166.127C211.381 166.418 211.878 166.555 212.377 166.514C212.879 166.473 213.349 166.255 213.705 165.899L213.706 165.898L215.818 163.777C216.53 163.061 216.719 161.908 216.14 161.045C215.488 160.061 214.059 159.695 212.941 160.681L212.941 160.681C212.881 160.734 212.561 161.045 212.266 161.333C212.116 161.479 211.97 161.623 211.86 161.729L211.729 161.858L211.693 161.894L211.683 161.903L211.681 161.905L211.68 161.906L211.68 161.906L211.68 161.906L211.855 162.085L211.68 161.906L211.678 161.908C211.665 161.921 211.651 161.93 211.635 161.937C211.62 161.943 211.603 161.947 211.586 161.947C211.569 161.947 211.552 161.943 211.536 161.937C211.521 161.93 211.506 161.921 211.494 161.908L211.494 161.908L211.072 161.484C211.072 161.484 211.072 161.484 211.072 161.484C211.047 161.459 211.033 161.425 211.033 161.389C211.033 161.353 211.047 161.319 211.072 161.294C211.072 161.294 211.072 161.294 211.072 161.294L212.161 160.201L212.162 160.2C213.271 159.083 215.071 158.911 216.259 159.898L216.26 159.899C216.872 160.404 217.259 161.133 217.336 161.926C217.414 162.718 217.175 163.508 216.672 164.123C216.672 164.123 216.672 164.124 216.671 164.124C216.665 164.131 216.632 164.166 216.564 164.235C216.495 164.306 216.4 164.404 216.286 164.519C216.06 164.749 215.765 165.048 215.471 165.344C215.178 165.641 214.886 165.935 214.668 166.155L214.405 166.42L214.332 166.494L214.312 166.513L214.307 166.518L214.306 166.52L214.306 166.52L214.306 166.52C213.747 167.081 212.989 167.396 212.199 167.397ZM210.351 166.612C210.351 166.612 210.352 166.611 210.354 166.609C210.352 166.611 210.351 166.612 210.351 166.612Z" fill="black" stroke="black" stroke-width="0.5"/>
<path d="M210.404 163.2L210.406 163.2C211.056 163.198 211.69 163.41 212.209 163.804L212.209 163.804L212.211 163.806C212.241 163.828 212.262 163.862 212.267 163.9C212.273 163.934 212.265 163.969 212.247 163.999L212.24 164.006C212.228 164.019 212.21 164.037 212.189 164.059C212.146 164.103 212.09 164.16 212.033 164.218L211.879 164.374L211.829 164.425L211.814 164.439L211.811 164.443L211.81 164.444L211.81 164.444L211.809 164.445L211.809 164.445L211.809 164.444L211.805 164.449C211.783 164.472 211.754 164.487 211.723 164.49C211.694 164.494 211.664 164.488 211.638 164.472C211.23 164.181 210.733 164.044 210.234 164.085C209.733 164.126 209.262 164.345 208.906 164.701L208.906 164.701L206.794 166.822C206.074 167.536 205.884 168.69 206.465 169.554C207.115 170.537 208.546 170.905 209.664 169.919L209.664 169.918C209.723 169.866 210.043 169.554 210.339 169.266C210.489 169.119 210.635 168.976 210.744 168.869L210.875 168.74L210.912 168.705L210.921 168.695L210.924 168.693L210.925 168.692L210.925 168.692L210.925 168.692L210.75 168.513L210.925 168.692L210.927 168.69C210.939 168.678 210.953 168.668 210.969 168.661L210.873 168.431L210.969 168.661C210.985 168.655 211.002 168.652 211.019 168.652C211.036 168.652 211.052 168.655 211.068 168.661L211.164 168.431L211.068 168.661C211.084 168.668 211.098 168.678 211.11 168.69L211.11 168.69L211.532 169.113C211.556 169.139 211.57 169.174 211.57 169.21C211.57 169.246 211.556 169.281 211.532 169.307L210.443 170.399L210.443 170.399C209.332 171.517 207.532 171.688 206.344 170.701L206.343 170.701C205.731 170.196 205.343 169.467 205.265 168.675C205.187 167.882 205.425 167.091 205.927 166.475L205.928 166.475C205.928 166.475 205.929 166.473 205.933 166.469C205.944 166.457 205.976 166.424 206.035 166.364C206.104 166.293 206.199 166.195 206.313 166.08C206.539 165.85 206.834 165.551 207.128 165.255C207.421 164.959 207.712 164.665 207.93 164.445L208.194 164.18L208.267 164.106L208.286 164.086L208.291 164.081L208.293 164.08L208.293 164.08L208.293 164.08L208.116 163.903L208.293 164.08L208.293 164.079C208.57 163.8 208.899 163.579 209.262 163.428C209.624 163.277 210.012 163.2 210.404 163.2Z" fill="black" stroke="black" stroke-width="0.5"/>
<rect x="291" y="42" width="200" height="78" rx="16" fill="#494949" fill-opacity="0.8"/>
<path d="M303.9 76.92V86.96C303.9 89.46 304.92 90.04 308.18 90.04C308.92 90.04 314.88 90.04 315.7 90.04C319 90.04 319.64 88.96 320.04 85.26C319.58 85.18 318.92 84.92 318.5 84.64C318.24 87.88 317.9 88.56 315.7 88.56C314.36 88.56 309.14 88.56 308.08 88.56C305.88 88.56 305.44 88.26 305.44 87V76.92H303.9ZM304.74 80.2V81.7H316.54V80.2H304.74ZM302.86 73.46V74.94H315.94V82.68H317.48V73.46H302.86ZM332.04 83.78L331.22 84.94H337.8V83.78H332.04ZM337.34 83.78V84.02C335.88 87.1 332.12 88.66 327.88 89.34C328.14 89.64 328.52 90.28 328.66 90.64C333.06 89.78 337.06 87.96 338.84 84.24L337.96 83.72L337.66 83.78H337.34ZM331.9 84.58L330.64 84.98C332.34 87.94 335.56 89.84 339.54 90.62C339.74 90.22 340.14 89.62 340.48 89.3C336.6 88.72 333.38 87.06 331.9 84.58ZM331.6 80.12H337.44V81.48H331.6V80.12ZM331.6 77.82H337.44V79.14H331.6V77.82ZM330.22 76.78V82.5H338.86V76.78H330.22ZM330.8 74.22V75.5H340.08V74.22H330.8ZM331.26 72.2C330.72 73.76 329.68 75.76 328.16 77.28C328.5 77.44 328.98 77.84 329.24 78.14C330.88 76.42 331.94 74.3 332.7 72.44L331.26 72.2ZM332.8 82.06C331.92 83.46 330.28 85.1 327.98 86.3C328.3 86.52 328.76 86.96 328.98 87.28C331.42 85.88 333.14 84.1 334.28 82.34L332.8 82.06ZM324.6 82.02V90.62H325.96V80.38L324.6 82.02ZM322.06 76.02V77.34H327.5V76.02H322.06ZM324.54 72.32V76.74H325.9V72.32H324.54ZM325.78 80.48L325.02 81.12C325.64 81.88 327.22 84.04 327.74 84.98L328.62 83.96C328.2 83.38 326.3 81.04 325.78 80.48ZM326.98 76.02V76.32C326 79.38 323.74 82.62 321.58 84.36C321.82 84.62 322.2 85.28 322.36 85.64C324.66 83.64 327.1 80.1 328.3 76.44L327.52 75.94L327.26 76.02H326.98ZM328.12 79.66C327.76 80.4 327.08 81.52 326.6 82.2L327.3 82.74C327.82 82.12 328.46 81.16 329 80.3L328.12 79.66ZM350.24 81.94V83.84H351.74V81.94H350.24ZM350.22 83.58C348.4 85.12 344.84 86.4 341.76 86.96C342.04 87.24 342.42 87.74 342.6 88.08C345.72 87.42 349.38 85.92 351.4 84.14L350.22 83.58ZM351.9 83.52L350.66 83.82C352.1 87.5 354.98 89.76 359.36 90.66C359.56 90.28 359.92 89.72 360.22 89.44C356.04 88.74 353.16 86.7 351.9 83.52ZM357.82 84.54C356.78 85.3 355 86.3 353.7 86.9L354.64 87.66C355.96 87.08 357.64 86.22 358.92 85.32L357.82 84.54ZM344.52 89.2L344.78 90.46C346.9 90.12 349.88 89.64 352.72 89.18L352.66 87.96C349.64 88.44 346.54 88.92 344.52 89.2ZM342.1 83.14V84.36H359.9V83.14H342.1ZM353.18 72.98V79.74H354.54V72.98H353.18ZM357.74 72.4V80.74C357.74 80.98 357.68 81.06 357.38 81.08C357.08 81.1 356.1 81.1 355 81.06C355.2 81.42 355.42 81.94 355.48 82.32C356.9 82.32 357.82 82.3 358.4 82.1C358.96 81.88 359.14 81.52 359.14 80.76V72.4H357.74ZM346.52 72.2V82.36H347.84V72.2H346.52ZM350.28 78.08V80.54C350.28 80.7 350.22 80.74 350.04 80.76C349.88 80.78 349.36 80.78 348.7 80.76C348.86 81.04 349.06 81.4 349.12 81.72C350 81.72 350.6 81.72 351.02 81.54C351.44 81.36 351.54 81.08 351.54 80.52V78.08H350.28ZM343.02 78.08V81.84H344.22V79.1H350.86V78.08H343.02ZM342.02 75.92V77.02H352.12V75.92H342.02ZM344.1 73.64L343.66 74.7H351.42V73.64H344.1ZM343.92 72.28C343.56 73.36 343 74.5 342.3 75.32C342.6 75.46 343.14 75.72 343.38 75.9C344.02 75.06 344.68 73.76 345.1 72.56L343.92 72.28ZM346.6 86.42V89.72H348.04V85.88L347.36 85.64L346.6 86.42ZM365.9 80.1H361.92V81.5H364.46V87.18H365.9V80.1ZM365.9 86.58H364.6C363.66 87.44 362.58 88.34 361.7 88.98L362.48 90.44C363.48 89.56 364.4 88.7 365.28 87.84C366.52 89.42 368.34 90.12 370.98 90.22C373.22 90.32 377.5 90.28 379.76 90.18C379.82 89.74 380.06 89.04 380.24 88.7C377.82 88.86 373.2 88.92 370.98 88.82C368.6 88.74 366.84 88.06 365.9 86.58ZM362.1 73.54C363.32 74.52 364.7 75.92 365.26 76.92L366.5 75.98C365.88 75 364.48 73.62 363.24 72.72L362.1 73.54ZM367.04 74V75.26H379.62V74H367.04ZM366.74 84.56V85.82H379.92V84.56H366.74ZM372.46 72.22V88.1H373.94V72.22H372.46ZM369.38 80.4H377.12V82H369.38V80.4ZM369.38 77.76H377.12V79.34H369.38V77.76ZM368 76.64V83.14H378.58V76.64H368ZM393.92 72.2V80.06H395.42V72.2H393.92ZM391.32 88.22V89.6H398.46V88.22H391.32ZM389.28 75.04V76.42H400.2V75.04H389.28ZM389.92 79.42V80.8H399.76V79.42H389.92ZM390.56 82.98V90.58H391.96V84.34H397.74V90.54H399.2V82.98H390.56ZM384.9 72.22C384.38 73.54 383.46 75.46 382.7 76.62L383.74 77.06C384.52 75.98 385.48 74.2 386.24 72.72L384.9 72.22ZM387.32 74.5C386.22 76.62 384.32 79.62 382.78 81.4L383.74 81.9C385.26 80.18 387.22 77.3 388.62 75.06L387.32 74.5ZM381.74 76.42C382.82 77.38 384.08 78.76 384.62 79.7L385.42 78.56C384.88 77.68 383.62 76.36 382.5 75.42L381.74 76.42ZM386.68 79.14C387.5 80.46 388.3 82.2 388.6 83.32L389.8 82.76C389.5 81.66 388.64 79.94 387.8 78.66L386.68 79.14ZM381.7 81.16L381.82 82.5C383.68 82.42 386.2 82.26 388.68 82.1L388.7 80.88C386.1 81 383.5 81.1 381.7 81.16ZM387.18 83.92C387.74 85.16 388.28 86.78 388.46 87.82L389.68 87.4C389.46 86.36 388.9 84.78 388.32 83.56L387.18 83.92ZM382.8 83.64C382.56 85.4 382.16 87.18 381.5 88.4C381.82 88.54 382.42 88.82 382.68 88.98C383.32 87.7 383.82 85.76 384.1 83.88L382.8 83.64ZM385.1 81.74V90.66H386.46V81.74H385.1ZM402.52 73.46V74.86H419.64V73.46H402.52ZM403.84 83.22V84.62H418.28V83.22H403.84ZM402.08 88.38V89.78H419.96V88.38H402.08ZM410.14 80.74V89.36H411.7V80.74H410.14ZM402.88 78.86L402.94 80.38C406.48 80.26 412.04 80.02 417.26 79.78L417.34 78.42C411.96 78.62 406.34 78.8 402.88 78.86ZM408.34 74.1C407.74 75.68 406.6 77.88 405.7 79.26L407.08 79.76C408 78.46 409.16 76.4 410.06 74.64L408.34 74.1ZM412.82 76.28C414.84 77.76 417.24 79.88 418.36 81.3L419.7 80.34C418.52 78.9 416.02 76.84 414.04 75.46L412.82 76.28ZM422.28 74.26V75.46H439.74V74.26H422.28ZM422.66 84.44V85.68H437.52V84.44H422.66ZM432.4 76.62V81.76H433.7V76.62H432.4ZM429.04 76.5V82.42C429.04 82.6 428.98 82.66 428.8 82.68C428.6 82.7 428.04 82.7 427.36 82.68C427.52 82.94 427.68 83.34 427.74 83.64C428.66 83.64 429.34 83.64 429.76 83.46C430.18 83.28 430.3 83.02 430.3 82.42V76.5H429.04ZM436.76 76.14V82.34C436.76 82.54 436.7 82.6 436.46 82.62C436.22 82.64 435.5 82.64 434.68 82.6C434.84 82.9 435.02 83.34 435.08 83.68C436.2 83.68 436.98 83.68 437.46 83.5C437.94 83.32 438.1 83.02 438.1 82.36V76.14H436.76ZM425.72 72.54C426.2 73.14 426.72 73.98 426.96 74.52L428.36 74.12C428.12 73.56 427.56 72.76 427.08 72.18L425.72 72.54ZM425.44 78.84C426.4 79.06 427.58 79.5 428.26 79.82L428.6 79C427.94 78.66 426.74 78.28 425.8 78.08L425.44 78.84ZM425.34 80.84C426.3 81.1 427.5 81.54 428.16 81.9L428.52 81.08C427.88 80.72 426.68 80.32 425.74 80.12L425.34 80.84ZM434.7 72.16C434.38 72.74 433.76 73.62 433.28 74.2L434.56 74.54C435.06 74 435.66 73.28 436.2 72.5L434.7 72.16ZM423.7 76.5V83.64H424.98V77.5H429.58V76.5H423.7ZM437.06 84.44L437.04 84.64C436.78 87.6 436.48 88.82 436.06 89.18C435.88 89.34 435.68 89.36 435.26 89.36C434.82 89.36 433.6 89.34 432.38 89.22C432.62 89.6 432.8 90.14 432.84 90.52C434.06 90.6 435.22 90.6 435.82 90.58C436.46 90.54 436.88 90.42 437.26 90.08C437.84 89.54 438.16 88.22 438.48 85.08C438.52 84.86 438.54 84.44 438.54 84.44H437.06ZM429.4 84.88C428.82 87.44 427.34 88.86 421.98 89.48C422.24 89.74 422.56 90.3 422.66 90.64C428.44 89.84 430.22 88.14 430.92 84.88H429.4ZM454.64 76.6V77.98H460.2V76.6H454.64ZM451.34 88.3V89.66H458.56V88.3H451.34ZM450.6 81.82V90.6H452V83.18H457.78V90.52H459.24V81.82H450.6ZM453.88 72.22V82.46H455.34V72.22H453.88ZM443.94 85.98C443.46 87.4 442.64 88.82 441.66 89.76C442 89.96 442.6 90.38 442.86 90.62C443.86 89.56 444.8 87.96 445.36 86.32L443.94 85.98ZM446.66 86.52C447.42 87.5 448.24 88.86 448.58 89.76L449.86 89.12C449.48 88.24 448.66 86.94 447.86 85.94L446.66 86.52ZM444.1 77.96H447.8V80.54H444.1V77.96ZM444.1 81.7H447.8V84.32H444.1V81.7ZM444.1 74.22H447.8V76.78H444.1V74.22ZM442.7 72.98V85.56H449.24V72.98H442.7ZM467.36 77.82V78.9H479.82V77.82H467.36ZM466.88 86.12V87.26H479.98V86.12H466.88ZM463.1 78.64C464.24 79.1 465.66 79.84 466.38 80.38L467.08 79.24C466.36 78.7 464.92 78 463.78 77.58L463.1 78.64ZM476.14 76.84C476.98 77.18 478.02 77.76 478.56 78.16L479.34 77.22C478.78 76.82 477.7 76.3 476.88 76L476.14 76.84ZM462 82.36C463.18 82.78 464.66 83.48 465.42 83.98L466.08 82.8C465.32 82.3 463.82 81.66 462.68 81.3L462 82.36ZM468.82 87.9C469.7 88.54 470.64 89.46 471.02 90.14L472.12 89.4C471.68 88.7 470.74 87.82 469.86 87.24L468.82 87.9ZM469.38 82.86H477.76V84.1H469.38V82.86ZM469.38 80.8H477.76V82H469.38V80.8ZM468.1 79.9V85H479.1V79.9H468.1ZM462.64 89.4L463.76 90.38C464.9 88.86 466.26 86.84 467.34 85.1L466.4 84.16C465.22 86.02 463.7 88.16 462.64 89.4ZM475.02 84.88V89.18C475.02 89.4 474.94 89.46 474.66 89.48C474.4 89.5 473.48 89.52 472.44 89.48C472.62 89.8 472.82 90.24 472.9 90.6C474.3 90.6 475.18 90.6 475.72 90.42C476.3 90.22 476.44 89.92 476.44 89.22V84.88H475.02ZM472.76 76.82V84.56H474.14V76.82H472.76ZM464.48 73.92V75.06H470.6V73.92H464.48ZM472.12 73.92V75.06H480.04V73.92H472.12ZM464.98 72.2C464.3 73.84 463.18 75.46 461.94 76.54C462.28 76.72 462.88 77.12 463.16 77.36C464.34 76.2 465.6 74.38 466.36 72.56L464.98 72.2ZM472.54 72.2C471.84 73.86 470.54 75.4 469.1 76.38C469.46 76.56 470.1 76.92 470.36 77.14C471.74 76.06 473.14 74.38 473.94 72.54L472.54 72.2ZM465.78 74.88C466.3 75.6 466.86 76.58 467.08 77.2L468.34 76.78C468.08 76.16 467.5 75.22 466.98 74.52L465.78 74.88ZM473.6 74.78C474.22 75.46 474.88 76.42 475.16 77.06L476.36 76.58C476.04 75.94 475.36 75.02 474.74 74.36L473.6 74.78Z" fill="white"/>
</svg>
