<svg width="4" height="14" viewBox="0 0 4 14" fill="none" xmlns="http://www.w3.org/2000/svg">
<path d="M0.828125 10.8281C1.16667 10.4896 1.55729 10.3203 2 10.3203C2.44271 10.3203 2.83333 10.4896 3.17188 10.8281C3.51042 11.1667 3.67969 11.5573 3.67969 12C3.67969 12.4427 3.51042 12.8333 3.17188 13.1719C2.83333 13.5104 2.44271 13.6797 2 13.6797C1.55729 13.6797 1.16667 13.5104 0.828125 13.1719C0.489583 12.8333 0.320312 12.4427 0.320312 12C0.320312 11.5573 0.489583 11.1667 0.828125 10.8281ZM0.828125 5.82812C1.16667 5.48958 1.55729 5.32031 2 5.32031C2.44271 5.32031 2.83333 5.48958 3.17188 5.82812C3.51042 6.16667 3.67969 6.55729 3.67969 7C3.67969 7.44271 3.51042 7.83333 3.17188 8.17188C2.83333 8.51042 2.44271 8.67969 2 8.67969C1.55729 8.67969 1.16667 8.51042 0.828125 8.17188C0.489583 7.83333 0.320312 7.44271 0.320312 7C0.320312 6.55729 0.489583 6.16667 0.828125 5.82812ZM3.17188 3.17188C2.83333 3.51042 2.44271 3.67969 2 3.67969C1.55729 3.67969 1.16667 3.51042 0.828125 3.17188C0.489583 2.83333 0.320312 2.44271 0.320312 2C0.320312 1.55729 0.489583 1.16667 0.828125 0.828125C1.16667 0.489583 1.55729 0.320312 2 0.320312C2.44271 0.320312 2.83333 0.489583 3.17188 0.828125C3.51042 1.16667 3.67969 1.55729 3.67969 2C3.67969 2.44271 3.51042 2.83333 3.17188 3.17188Z" fill="#000928"/>
</svg>
