<svg width="27" height="27" viewBox="0 0 27 27" fill="none" xmlns="http://www.w3.org/2000/svg">
<path d="M19.9873 8.59668C20.0381 3.89941 16.2549 0.344727 10.2881 0.293945L8.53613 0.28125C6.86035 0.255859 5.6416 0.382812 4.93066 0.573242C3.94043 0.827148 2.9502 1.43652 2.9502 2.65527C2.9502 3.15039 3.08984 3.50586 3.25488 3.78516C3.35645 3.9502 3.33105 4.07715 3.17871 4.14062C2.3916 4.4834 1.71875 5.21973 1.71875 6.23535C1.71875 6.81934 1.89648 7.32715 2.16309 7.69531C2.31543 7.88574 2.29004 8.05078 2.06152 8.19043C1.47754 8.52051 1.08398 9.24414 1.08398 10.082C1.08398 10.6787 1.27441 11.3135 1.61719 11.6309C1.82031 11.8086 1.78223 11.9355 1.56641 12.126C1.16016 12.4688 0.90625 13.0527 0.90625 13.7637C0.90625 15.0078 1.87109 16.0234 3.15332 16.0234H7.67285C8.82812 16.0234 9.58984 16.6201 9.58984 17.5596C9.58984 19.2988 7.43164 22.4473 7.43164 24.7197C7.43164 25.9131 8.20605 26.6113 9.20898 26.6113C10.123 26.6113 10.5801 25.9766 11.0752 25.0117C12.9795 21.292 15.5439 18.2832 17.4863 15.7061C19.1494 13.5098 19.9492 11.6309 19.9873 8.59668ZM26.0811 8.49512C26.0811 4.68652 23.7324 1.5 20.5586 1.5H18.0576C20.4443 3.1377 21.5361 5.67676 21.4854 8.62207C21.4346 11.9355 20.1777 14.1445 19.124 15.541H21.041C23.9102 15.541 26.0811 12.4561 26.0811 8.49512Z" fill="#E0E0E0"/>
</svg>
