<svg width="27" height="27" viewBox="0 0 27 27" fill="none" xmlns="http://www.w3.org/2000/svg">
<path d="M7 18.125C6.94922 22.8223 10.7324 26.377 16.6992 26.4277L18.4512 26.4404C20.127 26.4658 21.3457 26.3389 22.0566 26.1484C23.0469 25.8945 24.0371 25.2852 24.0371 24.0664C24.0371 23.5713 23.8975 23.2158 23.7324 22.9365C23.6309 22.7715 23.6562 22.6445 23.8086 22.5811C24.5957 22.2383 25.2686 21.502 25.2686 20.4863C25.2686 19.9023 25.0908 19.3945 24.8242 19.0264C24.6719 18.8359 24.6973 18.6709 24.9385 18.5312C25.5098 18.2012 25.9033 17.4775 25.9033 16.6396C25.9033 16.043 25.7256 15.4082 25.3701 15.0908C25.167 14.9131 25.2051 14.7861 25.4336 14.5957C25.8271 14.2529 26.0811 13.6689 26.0811 12.9453C26.0811 11.7139 25.1162 10.6982 23.834 10.6982H19.3145C18.1592 10.6982 17.3975 10.1016 17.3975 9.16211C17.3975 7.42285 19.5557 4.27441 19.5557 2.00195C19.5557 0.808594 18.7812 0.110352 17.7783 0.110352C16.8643 0.110352 16.4072 0.745117 15.9121 1.70996C14.0078 5.42969 11.4434 8.43848 9.50098 11.0156C7.85059 13.2119 7.03809 15.0908 7 18.125ZM0.90625 18.2266C0.90625 22.0352 3.25488 25.2217 6.42871 25.2217H8.92969C6.54297 23.584 5.45117 21.0322 5.50195 18.0996C5.55273 14.7861 6.80957 12.5645 7.86328 11.1807H5.95898C3.07715 11.1807 0.90625 14.2656 0.90625 18.2266Z" fill="#E0E0E0"/>
</svg>
